<svg version="1.1" id="Layer_1" xmlns="http://www.w3.org/2000/svg" xmlns:xlink="http://www.w3.org/1999/xlink" x="0px" y="0px" style="enable-background:new 0 0 1093.043335 328.3664856;" xml:space="preserve" viewBox="0 0 1093.07 328.38">
<style type="text/css">
	.st0{fill:#FFFFFF;}
</style>
<g>
	<g>
		<path class="st0" d="M211.630249,48.6177368c-15.2737427,0-29.2566528,8.6054077-36.140625,21.2975464V2.1515503h-18.5009155    v92.6246338c0,18.9543762-20.2365112,43.5323486-49.5009689,43.5323486c-27.5303955,0-33.8757858-22.551384-33.8757858-26.2916031    c41.142395-0.0002441,60.1719818-17.4578171,60.1719818-33.757225c0-16.5733643-12.2900925-29.6669312-33.7759323-29.6669312    c-12.0435104,0-40.2239189,8.8833618-43.7540092,47.932251C40.7147484,91.595459,23.7684364,74.2640991,14.6016893,49.8607788    L0,55.3468285c11.5152588,33.9480019,37.2329063,50.4060555,56.1292686,55.5601692    c4.9176331,36.23526,35.9999275,43.9290619,51.5442009,43.9290619c21.9641037,0,41.3803635-11.6929321,49.315239-27.4941406    v25.395752h17.6401978v-16.77948c7.098999,11.8314209,20.2218018,18.9310303,34.8504639,18.9310303    c28.1808472,0,48.1876221-20.8674927,48.1876221-52.4906616S238.7359619,48.6177368,211.630249,48.6177368z     M100.0080032,63.6854095c10.2049561,0,16.8926849,5.9081116,16.8926849,14.4842606    c0,7.5179367-8.729538,19.6839066-44.0112762,19.5588455C72.8894119,86.2201538,81.766243,63.6854095,100.0080032,63.6854095z     M206.8977661,138.324707c-16.5644531,0-32.2688599-13.5528564-32.2688599-36.1411743    c0-22.5877075,15.9194336-36.7857056,32.2688599-36.7857056c17.4246216,0,32.2682495,13.9829712,32.2682495,36.7857056    C239.1660156,125.2019043,224.3223877,138.324707,206.8977661,138.324707z"/>
		<path class="st0" d="M327.3671875,48.6177368c-15.2736816,0-29.2565918,8.6054077-36.140564,21.2975464V2.1515503H272.725647    v150.5861206h17.6402588v-16.77948c7.098999,11.8314209,20.2218018,18.9310303,34.8504028,18.9310303    c28.1809082,0,48.1876831-20.8674927,48.1876831-52.4906616S354.4729614,48.6177368,327.3671875,48.6177368z     M322.6347656,138.324707c-16.5644531,0-32.2688599-13.5528564-32.2688599-36.1411743    c0-22.5877075,15.9194336-36.7857056,32.2688599-36.7857056c17.4246216,0,32.2682495,13.9829712,32.2682495,36.7857056    C354.9030151,125.2019043,340.0593872,138.324707,322.6347656,138.324707z"/>
		<path class="st0" d="M433.6392822,138.5397339c-18.0702515,0-32.2681885-11.8320312-32.4832153-33.9896851h73.7869263    c0.8607178-3.8723145,1.2907715-7.9597168,1.2907715-12.4771118c0-13.3378296-4.0873413-23.878479-12.4771118-31.6231689    c-8.3897705-7.9597168-19.361084-11.8320312-32.9139404-11.8320312c-29.0415649,0-48.6176758,23.2333984-48.6176758,52.4906616    c0,32.9133301,21.5125732,53.7808228,51.4142456,53.7808228c23.4484863,0,38.722168-12.262085,45.6061401-32.9139404    l-16.1338501-6.2388916C459.024231,130.3649902,449.343689,138.5397339,433.6392822,138.5397339z M430.6276855,64.9671631    c15.4887695,0,27.3208008,8.6054077,27.3208008,23.2333984l-0.2150269,3.0116577h-56.5773926    C403.0919189,75.0783691,414.9239502,64.9671631,430.6276855,64.9671631z"/>
		<path class="st0" d="M572.1771851,34.8498535c0.2150269-1.2908325,0.2150269-2.7966309,0.2150269-4.7324829    C572.3922119,12.262085,560.9908447,0,538.6175537,0c-22.1576538,0-34.6347656,13.9829712-34.6347656,35.2805176v15.4887085    h-22.8027344v15.7037354h22.8027344v86.2647095h18.5009155V66.4729614h28.8265991V50.7692261h-28.8265991V35.7105713    c0-13.3378906,5.3781738-20.0067749,16.1338501-20.0067749c10.1112061,0,16.3494263,5.59375,16.3494263,15.274292    l-0.2150269,3.8717651H572.1771851z"/>
		<path class="st0" d="M608.5339966,48.6177368c-30.7623901,0-51.6292725,23.0183716-51.6292725,53.1357422    s20.8668823,53.1357422,51.6292725,53.1357422c30.5480347,0,51.8449097-23.0183716,51.8449097-53.1357422    S639.512085,48.6177368,608.5339966,48.6177368z M608.5339966,138.1090698    c-18.9303589,0-32.6982422-15.0586548-32.6982422-36.3555908c0-21.2975464,13.7678833-36.3556519,32.6982422-36.3556519    c9.680603,0,17.4252319,3.4417114,23.4484253,10.3256226c6.2388916,6.6689453,9.2504883,15.4887695,9.2504883,26.0300293    C641.2329102,123.2660522,627.6800537,138.1090698,608.5339966,138.1090698z"/>
		<path class="st0" d="M717.817749,92.2879639c-20.0062256-2.7965698-27.3201904-6.6689453-27.3201904-15.4887695    c0-7.9596558,8.6047363-13.1228027,19.7911377-13.1228027c10.9713135,0,18.9310303,5.163147,22.3726807,15.4893799    l14.4135742-7.9597168c-6.2387695-14.4135742-17.6401367-22.5883179-36.7862549-22.5883179    c-10.5412598,0-19.361084,2.581543-26.460083,7.9597168c-6.8839111,5.1630859-10.3261719,11.8320312-10.3261719,20.0067139    c0,16.1338501,11.6169434,25.8143921,35.0654297,29.2566528c20.6518555,2.7965698,26.8901367,8.1747437,26.8901367,17.8552856    c0,8.8198242-8.3897705,14.8436279-21.942627,14.8436279c-15.4887695,0-24.5241699-6.0238037-30.3323975-20.4368286    l-15.2738037,7.9597168c6.0239258,17.4246216,21.7276611,28.8265991,44.7460938,28.8265991    c23.0177002,0,40.8730469-13.3378906,40.8730469-32.2688599    C753.5283203,105.6257935,741.6967773,95.5145874,717.817749,92.2879639z"/>
	</g>
	<g>
		<path class="st0" d="M504.0328064,239.9502716H481.230072v-15.7037659h22.8027344V208.757782    c0-21.2975464,12.4771423-35.2804718,34.6347961-35.2804718c22.373291,0,33.7746582,12.262085,33.7746582,30.1173553    c0,1.9358521,0,3.4416656-0.2150269,4.7324371H554.802002l0.2150269-3.8717194    c0-9.6805267-6.2382202-15.2743225-16.3494263-15.2743225c-10.7556763,0-16.1338501,6.6689301-16.1338501,20.0067749v15.05867    h28.8265991v15.7037659h-28.8265991v86.2646942h-18.500946V239.9502716z"/>
		<path class="st0" d="M608.5834351,222.0950012c30.9780884,0,51.8449707,23.0183868,51.8449707,53.1357422    s-21.296936,53.1357422-51.8449707,53.1357422c-30.7623901,0-51.6292725-23.0183716-51.6292725-53.1357422    S577.8210449,222.0950012,608.5834351,222.0950012z M632.0319214,249.2007446    c-6.0232544-6.8839417-13.7679443-10.3256073-23.4484863-10.3256073c-18.9303589,0-32.6983032,15.05867-32.6983032,36.3556061    s13.7679443,36.3556213,32.6983032,36.3556213c19.1460571,0,32.6989136-14.8430481,32.6989136-36.3556213    C641.2823486,264.6894836,638.270752,255.8696747,632.0319214,249.2007446z"/>
		<path class="st0" d="M675.2727051,326.2149658V224.2465057h18.5009766v16.5644836    c7.098938-11.8320312,19.1459961-18.7159882,33.559021-18.7159882c21.7276001,0,35.9255371,13.983551,35.9255371,37.86203    v66.2579346h-18.7153931v-60.6647644c0-17.8552551-8.6047974-27.1057434-23.2333984-27.1057434    c-15.4887085,0-27.5357666,12.2621002-27.5357666,31.8381958v55.932312H675.2727051z"/>
		<path class="st0" d="M825.6456909,222.0950012c15.7043457,0,28.1815186,7.9597015,34.8504028,20.6518555v-67.118042h18.7153931    v150.5861511h-17.8552856V307.929657c-6.8839111,12.262085-19.7911377,20.4368286-35.2798462,20.4368286    c-28.1815186,0-47.7575684-21.2975464-47.7575684-52.4906616    C778.3187866,244.252655,797.8948364,222.0950012,825.6456909,222.0950012z M829.0879517,238.8751373    c-16.5644531,0-32.2688599,13.9829254-32.2688599,36.7856598c0,23.0183716,15.4893799,36.1412048,32.2688599,36.1412048    c15.9188232,0,32.2682495-13.3378601,32.2682495-36.1412048    C861.3562012,253.0730896,845.0067749,238.8751373,829.0879517,238.8751373z"/>
		<path class="st0" d="M991.0761108,295.4525452c-6.8839111,20.6518555-22.1576538,32.9139404-45.6060791,32.9139404    c-29.9017334,0-51.4143066-20.8674927-51.4143066-53.7814331c0-29.2566376,19.5761108-52.4900513,48.6177368-52.4900513    c13.5528564,0,24.5241699,3.872345,32.9139404,11.8320465c8.3897705,7.7446747,12.4771118,18.2853088,12.4771118,31.6231537    c0,4.5174255-0.4300537,8.6047974-1.2907715,12.4771423h-73.7869873    c0.2150269,22.1576538,14.4129639,33.9896851,32.4832764,33.9896851c15.7044067,0,25.3849487-8.1747437,29.47229-22.8033447    L991.0761108,295.4525452z M969.5641479,264.6894836l0.2150269-3.0115967c0-14.6286469-11.8320312-23.233429-27.3207397-23.233429    c-15.7037964,0-27.5358276,10.1112061-29.4716797,26.2450256H969.5641479z"/>
		<path class="st0" d="M1005.0578003,326.2149658V224.2465057h18.5009766v16.5644836    c7.098938-11.8320312,19.1460571-18.7159882,33.559021-18.7159882c21.7276611,0,35.9255371,13.983551,35.9255371,37.86203    v66.2579346h-18.715332v-60.6647644c0-17.8552551-8.6047363-27.1057434-23.2333984-27.1057434    c-15.4887695,0-27.5358276,12.2621002-27.5358276,31.8381958v55.932312H1005.0578003z"/>
	</g>
</g>
</svg>